<svg width="1540" height="1476" viewBox="0 0 1540 1476" fill="none" xmlns="http://www.w3.org/2000/svg">
<rect width="1540" height="1476" fill="black"/>
<g clip-path="url(#clip0_1363_54)">
<path d="M784.985 315.941L807.443 358.08L858.13 453.121L862.363 461.058H972.24V556.136H913.049L924.794 578.151L1099.14 905.15L1259.03 1205.02H1107.97C1054.39 1104.98 1000.82 1004.95 947.252 904.925C893.157 803.913 839.08 702.9 784.985 601.906V315.941ZM770 256V605.65C879.671 810.427 989.322 1015.22 1098.99 1220H1284C1168.67 1003.71 1053.35 787.402 938.018 571.112H987.225V446.082H871.354C837.563 382.715 803.791 319.367 770 256Z" fill="#E6E6E6"/>
<path d="M770 605.65C660.329 810.427 550.678 1015.2 441.007 1220H256C427.333 898.673 598.667 577.327 770 256V605.65Z" fill="#E6E6E6"/>
<path d="M1128.61 303.811V425.247H1007.1V303.811H1128.61ZM1143.59 288.835H992.113V440.223H1143.59V288.835Z" fill="#E6E6E6"/>
<path d="M1098.39 541.797V602.842H1037.31V541.797H1098.39ZM1109.63 530.565H1026.07V614.074H1109.63V530.565Z" fill="#E6E6E6"/>
</g>
<defs>
<clipPath id="clip0_1363_54">
<rect width="1028" height="964" fill="white" transform="translate(256 256)"/>
</clipPath>
</defs>
</svg>
